<svg xmlns="http://www.w3.org/2000/svg" xmlns:xlink="http://www.w3.org/1999/xlink" viewBox="0 0 458 34" style="background-color:#ffffff00" version="1.1" xml:space="preserve" x="0px" y="0px" width="458px" height="34px">
			<path d="M 9.5 21.8 C 9.5 18.4 10.6 16.1 13.3 16.1 C 15.7 16.1 16.6 17.7 16.6 20.9 L 16.6 32.9 L 24.5 32.9 L 24.5 18.7 C 24.5 13.1 22.6 9.2 16.6 9.2 C 13.3 9.2 10.7 10.6 9.5 12.9 L 9.5 10.2 L 1.6 10.2 L 1.6 32.9 L 9.5 32.9 L 9.5 21.8 L 9.5 21.8 Z" />
			<path d="M 49.7 24.8 C 49 27 47.4 27.9 44.9 27.9 C 42.1 27.9 39.8 26.3 39.5 22.9 L 56.5 22.9 L 56.5 20.7 C 56.5 14.4 52.5 9.2 44.4 9.2 C 36.8 9.2 31.7 14.3 31.7 21.6 C 31.7 29.6 36.7 33.8 44.5 33.8 C 51 33.8 55.2 31 56.4 25.6 L 49.7 24.8 L 49.7 24.8 ZM 39.7 19.1 C 40 16.8 41.3 15.1 44.3 15.1 C 47.1 15.1 48.5 16.9 48.7 19.1 L 39.7 19.1 L 39.7 19.1 Z" />
			<path d="M 83.4 10.1 L 76.7 10.1 L 73.4 23 L 73.2 23 L 69.1 10.1 L 60.7 10.1 L 68 32.9 L 76.2 32.9 L 79.6 20 L 79.8 20 L 83.1 32.9 L 91.3 32.9 L 98.6 10.1 L 91.1 10.1 L 87 23 L 86.8 23 L 83.4 10.1 L 83.4 10.1 Z" />
			<path d="M 137.6 10.1 L 130.9 10.1 L 127.5 23 L 127.3 23 L 123.2 10.1 L 114.9 10.1 L 122.2 32.9 L 130.4 32.9 L 133.7 20 L 133.9 20 L 137.3 32.9 L 145.5 32.9 L 152.8 10.1 L 145.2 10.1 L 141.1 23 L 140.9 23 L 137.6 10.1 L 137.6 10.1 Z" />
			<path d="M 175.1 24.8 C 174.3 27 172.7 27.9 170.2 27.9 C 167.4 27.9 165.1 26.3 164.9 22.9 L 181.9 22.9 L 181.9 20.7 C 181.9 14.4 177.8 9.2 169.7 9.2 C 162.2 9.2 157 14.3 157 21.6 C 157 29.6 162.1 33.8 169.9 33.8 C 176.3 33.8 180.5 31 181.7 25.6 L 175.1 24.8 L 175.1 24.8 ZM 165 19.1 C 165.3 16.8 166.6 15.1 169.6 15.1 C 172.4 15.1 173.9 16.9 174 19.1 L 165 19.1 L 165 19.1 Z" />
			<path d="M 196.9 20.8 C 196.9 17.4 198.7 15.1 201.5 15.1 C 204.6 15.1 206.1 17.5 206.1 21 C 206.1 25.3 204.6 27.9 201.5 27.9 C 198.7 27.9 196.9 25.4 196.9 21.6 L 196.9 20.8 L 196.9 20.8 ZM 196.5 29.6 C 197.7 32.1 200.5 33.8 204.2 33.8 C 210.7 33.8 213.9 28.9 213.9 21.5 C 213.9 14.1 210.7 9.2 204.3 9.2 C 200.5 9.2 198 10.9 196.9 13.4 L 196.9 0.1 L 189.1 0.1 L 189.1 32.9 L 195.1 32.9 L 196.5 29.6 L 196.5 29.6 Z" />
			<path d="M 219.7 26.3 C 220.2 31.4 225 33.8 231.3 33.8 C 237.8 33.8 242 31.2 242 26.3 C 242 21.5 239 19 233.8 18.1 L 229.4 17.3 C 228.6 17.1 228 16.7 228 15.9 C 228 14.8 228.9 14.1 230.5 14.1 C 233 14.1 234.4 15.2 234.8 17 L 241.7 16.8 C 241.2 11.9 237.2 9.2 230.6 9.2 C 224.2 9.2 220.2 12.2 220.2 16.8 C 220.2 21.9 223.1 23.8 228.7 24.8 L 232.1 25.3 C 233.7 25.6 234.2 26.3 234.2 27.2 C 234.2 28.2 233.2 28.9 231.4 28.9 C 228.9 28.9 227.4 27.8 227 25.7 L 219.7 26.3 L 219.7 26.3 Z" />
			<path d="M 249.2 10.1 L 249.2 32.9 L 257.1 32.9 L 257.1 10.1 L 249.2 10.1 L 249.2 10.1 ZM 249.2 6.8 L 257.1 6.8 L 257.1 0 L 249.2 0 L 249.2 6.8 L 249.2 6.8 Z" />
			<path d="M 265.3 26.8 C 265.3 32.3 268.8 33.9 272.5 33.9 C 275.6 33.9 277.6 33.2 279.4 31.8 L 279.4 26.4 C 278 27 276.9 27.2 275.8 27.2 C 274.1 27.2 273.2 26.4 273.2 24.4 L 273.2 15.8 L 279.2 15.8 L 279.2 10 L 273.2 10 L 273.2 3.6 L 268.2 3.6 L 267.4 6.6 C 266.9 8.8 266.2 10 263.9 10.4 L 262.2 10.6 L 262.2 15.8 L 265.3 15.8 L 265.3 26.8 L 265.3 26.8 Z" />
			<path d="M 303.5 24.8 C 302.7 27 301.1 27.9 298.6 27.9 C 295.8 27.9 293.5 26.3 293.3 22.9 L 310.3 22.9 L 310.3 20.7 C 310.3 14.4 306.2 9.2 298.1 9.2 C 290.6 9.2 285.4 14.3 285.4 21.6 C 285.4 29.6 290.5 33.8 298.3 33.8 C 304.7 33.8 308.9 31 310.1 25.6 L 303.5 24.8 L 303.5 24.8 ZM 293.4 19.1 C 293.7 16.8 295 15.1 298 15.1 C 300.8 15.1 302.3 16.9 302.4 19.1 L 293.4 19.1 L 293.4 19.1 Z" />
			<path d="M 330.5 22.8 L 377.4 22.8 L 377.4 17.2 L 330.5 17.2 L 330.5 22.8 L 330.5 22.8 Z" />
			<path d="M 404.6 9.1 L 401 9.1 C 401.1 7.3 402.3 6.8 404.6 6.7 L 404.6 3 C 399.4 3.1 396.7 5.1 396.7 9.5 L 396.7 15.9 L 404.6 15.9 L 404.6 9.1 L 404.6 9.1 Z" />
			<path d="M 410 12.9 L 415.6 12.9 L 415.6 32.9 L 423.5 32.9 L 423.5 3.1 L 417.4 3.1 C 416.3 6.5 414.2 8.1 410 8.1 L 410 12.9 L 410 12.9 Z" />
			<path d="M 453.4 3.1 L 443.8 3.1 L 430.8 19.5 L 430.8 25.9 L 445.6 25.9 L 445.6 32.9 L 453.4 32.9 L 453.4 25.9 L 457.3 25.9 L 457.3 20.1 L 453.4 20.1 L 453.4 3.1 L 453.4 3.1 ZM 445.6 10 L 445.6 20.1 L 437.7 20.1 L 445.6 10 L 445.6 10 Z" />
</svg>
