
<svg version="1.0" id="Layer_1" xmlns="http://www.w3.org/2000/svg" xmlns:xlink="http://www.w3.org/1999/xlink" x="0px" y="0px"
	 width="523.288px" height="156.85px" viewBox="0 0 523.288 156.85" enable-background="new 0 0 523.288 156.85"
	 xml:space="preserve">
<g>
	<path fill="#FFFFFF" d="M41.4,28.09c-2.279,0-4.709,0.312-7.223,0.926l-26.615,6.51l16.867,68.968l0.238,0.972l14.57-3.563
		l-6.51-26.616l12.045-2.946c7.074-1.729,12.336-5.289,15.213-10.293c2.684-4.664,3.283-10.477,1.734-16.81
		C59.054,34.34,51.648,28.09,41.4,28.09z M40.962,58.859l-11.561,2.827l-3.943-16.125l11.559-2.828
		c5.234-1.276,8.629,0.766,9.938,6.115S46.246,57.566,40.962,58.859z"/>
	
		<rect x="43.571" y="48.753" transform="matrix(-0.1831 -0.9831 0.9831 -0.1831 38.8401 144.7789)" fill="#FFFFFF" width="72.001" height="15"/>
	<polygon fill="#FFFFFF" points="135.41,11.355 141.005,54.341 111.5,14.469 96.339,16.441 105.634,87.842 120.509,85.906 
		114.914,42.922 144.419,82.793 159.582,80.819 150.285,9.42 	"/>
	<polygon fill="#FFFFFF" points="186.82,78.807 184.81,47.439 210.675,77.279 229.689,76.061 196.068,38.481 223.289,4.325 
		204.63,5.521 183.779,31.341 182.216,6.956 167.248,7.915 171.851,79.767 	"/>
	<polygon fill="#FFFFFF" points="255.412,29.936 243.156,4.192 226.898,4.313 248.029,45.592 248.257,76.151 263.255,76.04 
		263.027,45.479 283.537,3.89 267.279,4.013 	"/>
	<path fill="#FFFFFF" d="M322.958,45.823c8.139-2.613,13.002-9.391,13.406-18.786c0.555-12.881-7.639-21.25-21.381-21.842
		l-26.479-1.14l-3.098,71.938l14.988,0.646l1.299-30.174l5.24,0.225l17.484,30.983l16.838,0.726L322.958,45.823z M321.378,26.392
		c-0.189,4.377-2.516,6.597-6.914,6.597c-0.189,0-0.383-0.005-0.576-0.013l-11.592-0.499l0.594-13.788l11.592,0.499
		C319.255,19.393,321.576,21.816,321.378,26.392z"/>
	<path fill="#FFFFFF" d="M402.509,20.743c-5.328-6.445-13.412-10.535-22.758-11.52c-1.414-0.148-2.838-0.225-4.227-0.225
		c-8.59,0-16.201,2.8-22.01,8.096c-6.354,5.796-10.307,14.499-11.43,25.17c-2.342,22.232,9.42,37.996,29.963,40.159
		c1.414,0.149,2.836,0.225,4.225,0.225c8.592,0,16.203-2.8,22.01-8.096c6.355-5.795,10.309-14.499,11.432-25.17
		C410.933,37.817,408.441,27.914,402.509,20.743z M394.599,47.792c-1.373,13.04-8.43,20.825-18.873,20.825
		c-0.727,0-1.473-0.04-2.213-0.118c-5.256-0.553-9.57-2.87-12.477-6.702c-3.287-4.335-4.613-10.539-3.836-17.941
		c1.373-13.04,8.43-20.825,18.873-20.825c0.727,0,1.471,0.039,2.213,0.117c5.256,0.553,9.57,2.871,12.477,6.702
		C394.05,34.185,395.376,40.389,394.599,47.792z"/>
	<path fill="#FFFFFF" d="M443.091,47.929c-5.545-3.933-10.334-7.33-9.545-11.924c0.457-2.665,2.627-4.455,5.4-4.455
		c0.371,0,0.752,0.032,1.131,0.098c3.676,0.631,5.855,3.021,7.523,8.253l0.334,1.042l13.299-5.592l-0.232-0.847
		c-2.51-9.116-9.1-15.031-18.555-16.654c-1.227-0.211-2.463-0.317-3.678-0.317c-9.811,0-17.836,6.837-19.516,16.626
		c-2.289,13.326,7.121,19.887,14.684,25.157c5.141,3.583,9.578,6.677,8.863,10.847c-0.775,4.517-3.205,6.807-7.219,6.807
		c-0.67,0-1.389-0.065-2.137-0.193c-7.465-1.282-9.814-9.117-10.471-15.465l-0.137-1.332l-13.346,5.503l0.023,0.692
		c0.4,12.255,9.146,22.268,21.266,24.349c1.777,0.306,3.533,0.46,5.217,0.46c11.551,0,19.664-7.093,21.703-18.972
		C459.8,59.781,450.537,53.209,443.091,47.929z"/>
	<polygon fill="#FFFFFF" points="516.375,48.899 519.636,35.286 475.585,24.73 458.81,94.747 503.833,105.534 507.095,91.921 
		476.658,84.628 480.689,67.804 504.32,73.466 507.582,59.853 483.951,54.19 486.91,41.84 	"/>
	<polygon fill="#FFFFFF" points="126.402,122.867 129.652,122.867 129.652,115.369 135.951,115.369 135.951,112.37 129.652,112.37 
		129.652,108.371 137.474,108.371 137.474,105.371 126.402,105.371 	"/>
	<path fill="#FFFFFF" d="M156.72,110.346c0-2.899-1.824-4.975-5.324-4.975h-6.373v17.496h3.25v-7.548h1.699l4.699,7.548h3.623
		l-4.848-7.823C155.57,114.395,156.72,112.645,156.72,110.346z M151.421,112.319h-3.148v-3.948h3.148
		c1.174,0,2.049,0.55,2.049,1.975C153.47,111.77,152.595,112.319,151.421,112.319z"/>
	<polygon fill="#FFFFFF" points="169.142,115.044 175.216,115.044 175.216,112.045 169.142,112.045 169.142,108.371 
		176.716,108.371 176.716,105.371 165.892,105.371 165.892,122.867 176.964,122.867 176.964,119.868 169.142,119.868 	"/>
	<path fill="#FFFFFF" d="M187.957,109.771c0-0.925,0.727-1.6,1.676-1.6c1.023,0,1.75,0.55,2.424,1.85l2.625-1.675
		c-0.951-2.024-2.725-3.174-5.049-3.174c-2.75,0-4.773,2.099-4.773,4.748c0,5.549,7.322,4.975,7.322,7.873
		c0,1.6-0.924,2.274-2.273,2.274c-1.9,0-2.949-1.674-3.475-3.549l-2.625,1.649c0.551,2.675,2.85,4.899,6.023,4.899
		c3.35,0,5.6-2.024,5.6-5.449C195.431,112.42,187.957,112.819,187.957,109.771z"/>
	<polygon fill="#FFFFFF" points="206.691,115.02 213.689,115.02 213.689,122.867 216.939,122.867 216.939,105.371 213.689,105.371 
		213.689,112.02 206.691,112.02 206.691,105.371 203.441,105.371 203.441,122.867 206.691,122.867 	"/>
	<path fill="#FFFFFF" d="M248.214,122.867h3.674l-2.799-3.649c0.6-1.024,1.025-2.199,1.299-3.374l-1.799-2.1
		c-0.426,1.35-0.801,2.25-1.275,3.149l-2.873-3.774c1.5-0.8,2.85-2.349,2.85-4.448c0-1.774-1.451-3.499-4.051-3.499
		c-2.498,0-4.072,1.674-4.072,3.724c0,1.225,0.5,2.449,1.199,3.424c-1.725,0.976-3.324,2.774-3.324,5.399
		c0,3.374,2.424,5.349,5.549,5.349c1.875,0,3.398-0.6,4.598-1.55L248.214,122.867z M243.24,107.821c0.75,0,1.25,0.475,1.25,1.174
		c0,1.05-1,1.675-1.773,2.025c-0.475-0.601-0.801-1.175-0.801-1.925C241.916,108.32,242.466,107.821,243.24,107.821z
		 M242.617,120.192c-1.576,0-2.576-1.124-2.576-2.523c0-1.275,0.701-2.425,1.9-3.149l3.523,4.698
		C244.666,119.868,243.865,120.192,242.617,120.192z"/>
	<path fill="#FFFFFF" d="M274.015,109.771c0-0.925,0.727-1.6,1.676-1.6c1.023,0,1.75,0.55,2.424,1.85l2.625-1.675
		c-0.951-2.024-2.725-3.174-5.049-3.174c-2.75,0-4.773,2.099-4.773,4.748c0,5.549,7.322,4.975,7.322,7.873
		c0,1.6-0.924,2.274-2.273,2.274c-1.9,0-2.949-1.674-3.475-3.549l-2.625,1.649c0.551,2.675,2.85,4.899,6.023,4.899
		c3.35,0,5.6-2.024,5.6-5.449C281.49,112.42,274.015,112.819,274.015,109.771z"/>
	<polygon fill="#FFFFFF" points="292.75,115.044 298.824,115.044 298.824,112.045 292.75,112.045 292.75,108.371 300.324,108.371 
		300.324,105.371 289.5,105.371 289.5,122.867 300.572,122.867 300.572,119.868 292.75,119.868 	"/>
	<path fill="#FFFFFF" d="M320.496,110.346c0-2.899-1.824-4.975-5.324-4.975h-6.373v17.496h3.25v-7.548h1.699l4.699,7.548h3.623
		l-4.848-7.823C319.345,114.395,320.496,112.645,320.496,110.346z M315.197,112.319h-3.148v-3.948h3.148
		c1.174,0,2.049,0.55,2.049,1.975C317.246,111.77,316.371,112.319,315.197,112.319z"/>
	<rect x="329.667" y="105.371" fill="#FFFFFF" width="3.25" height="17.496"/>
	<path fill="#FFFFFF" d="M349.423,105.172c-4.424,0-8.248,2.874-8.248,8.947s3.824,8.948,8.248,8.948
		c4.426,0,8.248-2.875,8.248-8.948S353.849,105.172,349.423,105.172z M349.423,120.067c-2.623,0-4.947-1.799-4.947-5.948
		c0-4.148,2.324-5.948,4.947-5.948c2.625,0,4.949,1.8,4.949,5.948C354.373,118.269,352.048,120.067,349.423,120.067z"/>
	<path fill="#FFFFFF" d="M375.365,116.269c0,2.55-1.076,3.799-3.275,3.799s-3.273-1.249-3.273-3.799v-10.897h-3.25v10.848
		c0,4.674,2.699,6.849,6.523,6.849s6.523-2.175,6.523-6.849v-10.848h-3.248V116.269z"/>
	<path fill="#FFFFFF" d="M390.181,109.771c0-0.925,0.727-1.6,1.676-1.6c1.023,0,1.75,0.55,2.424,1.85l2.625-1.675
		c-0.951-2.024-2.725-3.174-5.049-3.174c-2.75,0-4.773,2.099-4.773,4.748c0,5.549,7.322,4.975,7.322,7.873
		c0,1.6-0.924,2.274-2.273,2.274c-1.9,0-2.949-1.674-3.475-3.549l-2.625,1.649c0.551,2.675,2.85,4.899,6.023,4.899
		c3.35,0,5.6-2.024,5.6-5.449C397.656,112.42,390.181,112.819,390.181,109.771z"/>
	<path fill="#FFFFFF" d="M210.603,139.771c0-0.925,0.727-1.6,1.676-1.6c1.023,0,1.75,0.55,2.424,1.85l2.625-1.675
		c-0.951-2.024-2.725-3.174-5.049-3.174c-2.75,0-4.773,2.099-4.773,4.748c0,5.549,7.322,4.975,7.322,7.873
		c0,1.6-0.924,2.274-2.273,2.274c-1.9,0-2.949-1.674-3.475-3.549l-2.625,1.649c0.551,2.675,2.85,4.899,6.023,4.899
		c3.35,0,5.6-2.024,5.6-5.449C218.078,142.42,210.603,142.819,210.603,139.771z"/>
	<polygon fill="#FFFFFF" points="230.273,142.17 227.099,135.371 223.599,135.371 228.648,145.419 228.648,152.867 231.898,152.867 
		231.898,145.419 236.947,135.371 233.447,135.371 	"/>
	<path fill="#FFFFFF" d="M255.835,140.346c0-2.899-1.824-4.975-5.322-4.975h-6.375v17.496h3.25v-7.548h1.699l4.699,7.548h3.625
		l-4.85-7.823C254.687,144.395,255.835,142.645,255.835,140.346z M250.537,142.319h-3.148v-3.948h3.148
		c1.176,0,2.051,0.55,2.051,1.975C252.587,141.77,251.712,142.319,250.537,142.319z"/>
	<path fill="#FFFFFF" d="M274.148,146.269c0,2.55-1.076,3.799-3.275,3.799s-3.273-1.249-3.273-3.799v-10.897h-3.25v10.848
		c0,4.674,2.699,6.849,6.523,6.849s6.523-2.175,6.523-6.849v-10.848h-3.248V146.269z"/>
	<path fill="#FFFFFF" d="M292.904,135.371h-6.598v17.496h3.25v-6.849h3.348c3.699,0,5.475-2.274,5.475-5.323
		C298.378,137.646,296.603,135.371,292.904,135.371z M292.779,143.02h-3.223v-4.648h3.223c1.426,0,2.301,0.725,2.301,2.324
		S294.205,143.02,292.779,143.02z"/>
	<path fill="#FFFFFF" d="M308.755,139.771c0-0.925,0.725-1.6,1.674-1.6c1.025,0,1.75,0.55,2.426,1.85l2.623-1.675
		c-0.949-2.024-2.725-3.174-5.049-3.174c-2.748,0-4.773,2.099-4.773,4.748c0,5.549,7.324,4.975,7.324,7.873
		c0,1.6-0.926,2.274-2.275,2.274c-1.898,0-2.949-1.674-3.475-3.549l-2.623,1.649c0.549,2.675,2.848,4.899,6.023,4.899
		c3.348,0,5.598-2.024,5.598-5.449C316.228,142.42,308.755,142.819,308.755,139.771z"/>
</g>
</svg>
