<?xml version="1.0" encoding="utf-8"?>
<!-- Generator: Adobe Illustrator 16.0.0, SVG Export Plug-In . SVG Version: 6.00 Build 0)  -->
<!DOCTYPE svg PUBLIC "-//W3C//DTD SVG 1.0//EN" "http://www.w3.org/TR/2001/REC-SVG-20010904/DTD/svg10.dtd">
<svg version="1.0" id="Layer_1" xmlns="http://www.w3.org/2000/svg" xmlns:xlink="http://www.w3.org/1999/xlink" x="0px" y="0px"
	 width="68.968px" height="120.002px" viewBox="0 0 68.968 120.002" enable-background="new 0 0 68.968 120.002"
	 xml:space="preserve">
<g>
	<g>
		<g>
			<defs>
				<rect id="SVGID_1_" width="68.968" height="120.002"/>
			</defs>
			<clipPath id="SVGID_2_">
				<use xlink:href="#SVGID_1_"  overflow="visible"/>
			</clipPath>
			<path clip-path="url(#SVGID_2_)" d="M47.291,120.002c-25.469,0-35.147-18.785-35.147-32.056v-39.21H0V33.235
				c18.202-6.562,22.582-22.979,23.609-32.338C23.681,0.255,24.186,0,24.473,0h17.58v30.57h24.009v18.166H41.964v37.355
				c0.08,4.993,1.875,11.84,11.039,11.84c0.166,0,0.338-0.002,0.511-0.009c3.183-0.083,7.45-1.007,9.683-2.069l5.771,17.115
				c-2.168,3.182-11.961,6.872-20.779,7.025C47.886,120,47.589,120.002,47.291,120.002"/>
		</g>
	</g>
</g>
</svg>
